<svg
  fill="#000000"
  height="200px"
  width="200px"
  version="1.1"
  id="Layer_1"
  xmlns="http://www.w3.org/2000/svg"
  xmlns:xlink="http://www.w3.org/1999/xlink"
  viewBox="0 0 297 297"
  xml:space="preserve"
>
  <g id="SVGRepo_bgCarrier" stroke-width="0"></g>
  <g
    id="SVGRepo_tracerCarrier"
    stroke-linecap="round"
    stroke-linejoin="round"
  ></g>
  <g id="SVGRepo_iconCarrier">
    <g>
      <g>
        <g>
          <path
            d="M93.377,210.327l-8.751,17.504h17.009c2.888,0,5.57,1.495,7.088,3.951c1.517,2.456,1.656,5.524,0.364,8.107 l-12.324,24.649L140.168,297v-23.58l-34.087-68.175L93.377,210.327z"
          ></path>
          <path
            d="M78.937,262.927l9.216-18.432H71.145c-2.888,0-5.57-1.495-7.088-3.951c-1.517-2.456-1.656-5.524-0.364-8.106 l6.398-12.796l-5.818,2.327c-23.456,9.383-41.118,29.617-47.246,54.125L11.8,297h97.405l-28.214-24 C78.07,270.515,77.223,266.357,78.937,262.927z"
          ></path>
          <path
            d="M279.975,276.094c-6.128-24.509-23.79-44.743-47.246-54.125l-5.818-2.327l6.398,12.796 c1.292,2.582,1.153,5.65-0.364,8.106c-1.519,2.456-4.201,3.951-7.088,3.951h-17.009l9.216,18.432 c1.715,3.431,0.868,7.588-2.053,10.073l-28.214,24H285.2L279.975,276.094z"
          ></path>
          <path
            d="M187.914,239.89c-1.292-2.583-1.153-5.651,0.364-8.107c1.519-2.456,4.201-3.951,7.088-3.951h17.009l-8.751-17.504 l-12.704-5.082l-34.088,68.175V297l43.406-32.461L187.914,239.89z"
          ></path>
          <path
            d="M85.908,45.478c0.753-2.395,2.546-4.322,4.879-5.246c2.331-0.926,4.958-0.749,7.149,0.481 c0.687,0.385,67.799,37.521,134.917,35.952c0.316-3.533,0.481-7.028,0.481-10.464c0-23.817-7.741-40.702-23.667-51.619 C195.553,4.906,174.974,0,148.5,0s-47.052,4.906-61.166,14.582C71.408,25.499,63.667,42.384,63.667,66.201 c0,2.434,0.084,4.898,0.244,7.383C80.362,62.536,85.848,45.667,85.908,45.478z"
          ></path>
          <path
            d="M148.5,204.965c-9.098,0-18.105-1.98-26.833-5.81l26.833,53.667l26.834-53.667 C166.606,202.985,157.599,204.965,148.5,204.965z"
          ></path>
          <path
            d="M66.321,91.473c9.616,47.741,44.116,96.828,82.179,96.828c37.563,0,71.652-47.789,81.786-94.927 c0.148-0.001,0.297-0.002,0-0.002c-56.635,0-112.347-23.903-132.395-33.889C93.122,68.617,83.479,82.595,66.321,91.473z"
          ></path>
        </g>
      </g>
    </g>
  </g>
</svg>
