<svg
  version="1.1"
  id="Layer_1"
  xmlns="http://www.w3.org/2000/svg"
  xmlns:xlink="http://www.w3.org/1999/xlink"
  viewBox="0 0 512 512"
  xml:space="preserve"
  fill="#000000"
>
  <g id="SVGRepo_bgCarrier" stroke-width="0"></g>
  <g
    id="SVGRepo_tracerCarrier"
    stroke-linecap="round"
    stroke-linejoin="round"
  ></g>
  <g id="SVGRepo_iconCarrier">
    <path
      style="fill: #8a9199"
      d="M490.625,100.554H21.374c-9.252,0-16.759-7.507-16.759-16.759V16.759C4.616,7.507,12.122,0,21.374,0 h469.25c9.252,0,16.647,7.507,16.647,16.759v67.036C507.272,93.047,499.878,100.554,490.625,100.554z M38.022,67.036h435.844V33.518 H38.022C38.022,33.518,38.022,67.036,38.022,67.036z"
    ></path>
    <path
      style="fill: #737980"
      d="M490.625,0H256v33.518h217.866v33.518H256v33.518h234.625c9.252,0,16.647-7.507,16.647-16.759V16.759 C507.272,7.507,499.878,0,490.625,0z"
    ></path>
    <g>
      <rect
        x="66.064"
        style="fill: #8a9199"
        width="33.406"
        height="100.554"
      ></rect>
      <rect
        x="133.1"
        style="fill: #8a9199"
        width="33.406"
        height="100.554"
      ></rect>
      <rect
        x="200.135"
        style="fill: #8a9199"
        width="33.406"
        height="100.554"
      ></rect>
    </g>
    <g>
      <rect
        x="267.171"
        style="fill: #737980"
        width="34.607"
        height="100.554"
      ></rect>
      <rect
        x="335.413"
        style="fill: #737980"
        width="33.406"
        height="100.554"
      ></rect>
      <rect
        x="401.243"
        style="fill: #737980"
        width="33.406"
        height="100.554"
      ></rect>
    </g>
    <path
      style="fill: #8ff0f0"
      d="M502.468,493.271c-6.592,6.48-17.094,6.48-23.686,0c-11.955-11.955-31.395-11.955-43.35,0 c-24.915,24.915-65.695,25.028-90.722,0c-11.955-11.955-31.395-11.955-43.35,0C288.847,505.673,272.423,511.93,256,511.93 s-32.848-6.257-45.361-18.658c-11.955-11.955-31.395-11.955-43.35,0c-25.027,24.915-65.695,24.915-90.722,0 c-11.955-11.955-31.395-11.955-43.35,0c-6.592,6.48-17.094,6.48-23.686,0c-6.592-6.592-6.592-17.206,0-23.686 c25.027-25.027,65.695-25.027,90.722,0c11.955,11.843,31.395,11.843,43.35,0c25.027-25.027,65.695-25.027,90.722,0 c6.033,5.921,13.854,8.826,21.675,8.826c7.821,0,15.642-2.905,21.675-8.826c25.027-25.027,65.695-25.027,90.722,0 c11.955,11.843,31.395,11.843,43.35,0c25.027-25.027,65.695-25.027,90.722,0C509.061,476.065,509.061,486.68,502.468,493.271z"
    ></path>
    <path
      style="fill: #87d7d7"
      d="M502.468,493.271c-6.592,6.48-17.094,6.48-23.686,0c-11.955-11.955-31.395-11.955-43.35,0 c-24.915,24.915-65.695,25.028-90.722,0c-11.955-11.955-31.395-11.955-43.35,0C288.847,505.673,272.423,511.93,256,511.93v-33.518 c7.821,0,15.642-2.905,21.675-8.826c25.027-25.027,65.695-25.027,90.722,0c11.955,11.843,31.395,11.843,43.35,0 c25.027-25.027,65.695-25.027,90.722,0C509.061,476.065,509.061,486.68,502.468,493.271z"
    ></path>
    <path
      style="fill: #8ff0f0"
      d="M502.468,426.236c-6.592,6.48-17.094,6.48-23.686,0c-11.955-11.955-31.395-11.955-43.35,0 c-24.915,24.915-65.695,25.028-90.722,0c-11.955-11.955-31.395-11.955-43.35,0c-12.513,12.402-28.937,18.658-45.361,18.658 s-32.848-6.257-45.361-18.658c-11.955-11.955-31.395-11.955-43.35,0c-25.027,24.915-65.695,24.915-90.722,0 c-11.955-11.955-31.395-11.955-43.35,0c-6.592,6.48-17.094,6.48-23.686,0c-6.592-6.592-6.592-17.206,0-23.686 c25.027-25.027,65.695-25.027,90.722,0c11.955,11.843,31.395,11.843,43.35,0c25.027-25.027,65.695-25.027,90.722,0 c6.033,5.921,13.854,8.826,21.675,8.826c7.821,0,15.642-2.905,21.675-8.826c25.027-25.027,65.695-25.027,90.722,0 c11.955,11.843,31.395,11.843,43.35,0c25.027-25.027,65.695-25.027,90.722,0C509.061,409.03,509.061,419.644,502.468,426.236z"
    ></path>
    <path
      style="fill: #87d7d7"
      d="M502.468,426.236c-6.592,6.48-17.094,6.48-23.686,0c-11.955-11.955-31.395-11.955-43.35,0 c-24.915,24.915-65.695,25.028-90.722,0c-11.955-11.955-31.395-11.955-43.35,0c-12.513,12.402-28.937,18.658-45.361,18.658v-33.518 c7.821,0,15.642-2.905,21.675-8.826c25.027-25.027,65.695-25.027,90.722,0c11.955,11.843,31.395,11.843,43.35,0 c25.027-25.027,65.695-25.027,90.722,0C509.061,409.03,509.061,419.644,502.468,426.236z"
    ></path>
    <path
      style="fill: #c9d0d7"
      d="M105.169,345.392V220.103c0-26.243,19.138-49.723,45.257-52.268 c29.969-2.921,55.297,20.651,55.297,50.032c0,14.223,0-7.194,0,127.525h100.442V220.104c0-26.243,19.249-49.723,45.369-52.268 c29.969-2.921,55.297,20.651,55.297,50.032c0,30.105,0,62.344,0,127.525h100.442V67.036H4.615v278.356H105.169z"
    ></path>
    <path
      style="fill: #b8c2c9"
      d="M256,345.392h50.165v-125.29c0-26.243,19.249-49.722,45.369-52.268 c29.969-2.921,55.297,20.651,55.297,50.032c0,30.105,0,62.344,0,127.525h100.442V67.036H256L256,345.392L256,345.392z"
    ></path>
    <path
      style="fill: #8ff0f0"
      d="M502.468,359.2c-6.592,6.48-17.094,6.48-23.686,0c-11.955-11.955-31.395-11.955-43.35,0 c-24.915,24.915-65.695,25.028-90.722,0c-11.955-11.955-31.395-11.955-43.35,0c-12.513,12.402-28.937,18.658-45.361,18.658 s-32.848-6.257-45.361-18.658c-11.955-11.955-31.395-11.955-43.35,0c-25.027,24.915-65.695,24.915-90.722,0 c-11.955-11.955-31.395-11.955-43.35,0c-6.592,6.48-17.094,6.48-23.686,0c-6.592-6.592-6.592-17.206,0-23.686 c25.027-25.027,65.695-25.027,90.722,0c11.955,11.843,31.395,11.843,43.35,0c25.027-25.027,65.695-25.027,90.722,0 c6.033,5.921,13.854,8.826,21.675,8.826c7.821,0,15.642-2.905,21.675-8.826c25.027-25.027,65.695-25.027,90.722,0 c11.955,11.843,31.395,11.843,43.35,0c25.027-25.027,65.695-25.027,90.722,0C509.061,341.994,509.061,352.608,502.468,359.2z"
    ></path>
    <path
      style="fill: #87d7d7"
      d="M502.468,359.2c-6.592,6.48-17.094,6.48-23.686,0c-11.955-11.955-31.395-11.955-43.35,0 c-24.915,24.915-65.695,25.028-90.722,0c-11.955-11.955-31.395-11.955-43.35,0c-12.513,12.402-28.937,18.658-45.361,18.658V344.34 c7.821,0,15.642-2.905,21.675-8.826c25.027-25.027,65.695-25.027,90.722,0c11.955,11.843,31.395,11.843,43.35,0 c25.027-25.027,65.695-25.027,90.722,0C509.061,341.994,509.061,352.608,502.468,359.2z"
    ></path>
  </g>
</svg>
