<svg
  viewBox="0 0 1024 1024"
  class="icon"
  version="1.1"
  xmlns="http://www.w3.org/2000/svg"
  fill="#000000"
>
  <g id="SVGRepo_bgCarrier" stroke-width="0"></g>
  <g
    id="SVGRepo_tracerCarrier"
    stroke-linecap="round"
    stroke-linejoin="round"
  ></g>
  <g id="SVGRepo_iconCarrier">
    <path
      d="M512 597.333333h384v298.666667H512zM128 213.333333h256v682.666667H128z"
      fill="#81D4FA"
    ></path>
    <path
      d="M341.333333 170.666667h-42.666666c0 23.466667-19.2 42.666667-42.666667 42.666666s-42.666667-19.2-42.666667-42.666666H170.666667c0 23.466667-19.2 42.666667-42.666667 42.666666v42.666667c25.6 0 49.066667-10.666667 64-29.866667 14.933333 17.066667 38.4 29.866667 64 29.866667s49.066667-10.666667 64-29.866667c14.933333 17.066667 38.4 29.866667 64 29.866667v-42.666667c-23.466667 0-42.666667-19.2-42.666667-42.666666zM341.333333 298.666667h-42.666666c0 23.466667-19.2 42.666667-42.666667 42.666666s-42.666667-19.2-42.666667-42.666666H170.666667c0 23.466667-19.2 42.666667-42.666667 42.666666v42.666667c25.6 0 49.066667-10.666667 64-29.866667 14.933333 17.066667 38.4 29.866667 64 29.866667s49.066667-10.666667 64-29.866667c14.933333 17.066667 38.4 29.866667 64 29.866667v-42.666667c-23.466667 0-42.666667-19.2-42.666667-42.666666zM341.333333 426.666667h-42.666666c0 23.466667-19.2 42.666667-42.666667 42.666666s-42.666667-19.2-42.666667-42.666666H170.666667c0 23.466667-19.2 42.666667-42.666667 42.666666v42.666667c25.6 0 49.066667-10.666667 64-29.866667 14.933333 17.066667 38.4 29.866667 64 29.866667s49.066667-10.666667 64-29.866667c14.933333 17.066667 38.4 29.866667 64 29.866667v-42.666667c-23.466667 0-42.666667-19.2-42.666667-42.666666zM341.333333 554.666667h-42.666666c0 23.466667-19.2 42.666667-42.666667 42.666666s-42.666667-19.2-42.666667-42.666666H170.666667c0 23.466667-19.2 42.666667-42.666667 42.666666v42.666667c25.6 0 49.066667-10.666667 64-29.866667 14.933333 17.066667 38.4 29.866667 64 29.866667s49.066667-10.666667 64-29.866667c14.933333 17.066667 38.4 29.866667 64 29.866667v-42.666667c-23.466667 0-42.666667-19.2-42.666667-42.666666zM341.333333 682.666667h-42.666666c0 23.466667-19.2 42.666667-42.666667 42.666666s-42.666667-19.2-42.666667-42.666666H170.666667c0 23.466667-19.2 42.666667-42.666667 42.666666v42.666667c25.6 0 49.066667-10.666667 64-29.866667 14.933333 17.066667 38.4 29.866667 64 29.866667s49.066667-10.666667 64-29.866667c14.933333 17.066667 38.4 29.866667 64 29.866667v-42.666667c-23.466667 0-42.666667-19.2-42.666667-42.666666zM341.333333 810.666667h-42.666666c0 23.466667-19.2 42.666667-42.666667 42.666666s-42.666667-19.2-42.666667-42.666666H170.666667c0 23.466667-19.2 42.666667-42.666667 42.666666v42.666667c25.6 0 49.066667-10.666667 64-29.866667 14.933333 17.066667 38.4 29.866667 64 29.866667s49.066667-10.666667 64-29.866667c14.933333 17.066667 38.4 29.866667 64 29.866667v-42.666667c-23.466667 0-42.666667-19.2-42.666667-42.666666zM853.333333 682.666667h-42.666666c0 23.466667-19.2 42.666667-42.666667 42.666666s-42.666667-19.2-42.666667-42.666666h-42.666666c0 23.466667-19.2 42.666667-42.666667 42.666666s-42.666667-19.2-42.666667-42.666666h-42.666666c0 23.466667-19.2 42.666667-42.666667 42.666666v42.666667c25.6 0 49.066667-10.666667 64-29.866667 14.933333 17.066667 38.4 29.866667 64 29.866667s49.066667-10.666667 64-29.866667c14.933333 17.066667 38.4 29.866667 64 29.866667s49.066667-10.666667 64-29.866667c14.933333 17.066667 38.4 29.866667 64 29.866667v-42.666667c-23.466667 0-42.666667-19.2-42.666667-42.666666zM853.333333 554.666667h-42.666666c0 23.466667-19.2 42.666667-42.666667 42.666666s-42.666667-19.2-42.666667-42.666666h-42.666666c0 23.466667-19.2 42.666667-42.666667 42.666666s-42.666667-19.2-42.666667-42.666666h-42.666666c0 23.466667-19.2 42.666667-42.666667 42.666666v42.666667c25.6 0 49.066667-10.666667 64-29.866667 14.933333 17.066667 38.4 29.866667 64 29.866667s49.066667-10.666667 64-29.866667c14.933333 17.066667 38.4 29.866667 64 29.866667s49.066667-10.666667 64-29.866667c14.933333 17.066667 38.4 29.866667 64 29.866667v-42.666667c-23.466667 0-42.666667-19.2-42.666667-42.666666zM853.333333 810.666667h-42.666666c0 23.466667-19.2 42.666667-42.666667 42.666666s-42.666667-19.2-42.666667-42.666666h-42.666666c0 23.466667-19.2 42.666667-42.666667 42.666666v42.666667c25.6 0 49.066667-10.666667 64-29.866667 14.933333 17.066667 38.4 29.866667 64 29.866667s49.066667-10.666667 64-29.866667c14.933333 17.066667 38.4 29.866667 64 29.866667v-42.666667c-23.466667 0-42.666667-19.2-42.666667-42.666666z"
      fill="#1976D2"
    ></path>
    <path
      d="M535.466667 196.266667L672 896H384V128h68.266667c40.533333 0 76.8 29.866667 83.2 68.266667z"
      fill="#455A64"
    ></path>
  </g>
</svg>
