<svg
  height="200px"
  width="200px"
  version="1.1"
  id="Layer_1"
  xmlns="http://www.w3.org/2000/svg"
  xmlns:xlink="http://www.w3.org/1999/xlink"
  viewBox="0 0 512 512"
  xml:space="preserve"
  fill="#000000"
>
  <g id="SVGRepo_bgCarrier" stroke-width="0"></g>
  <g
    id="SVGRepo_tracerCarrier"
    stroke-linecap="round"
    stroke-linejoin="round"
  ></g>
  <g id="SVGRepo_iconCarrier">
    <g transform="translate(1 1)">
      <path
        style="fill: #63d3fd"
        d="M374.467,323.267c-37.547,0-68.267-30.72-68.267-68.267s30.72-68.267,68.267-68.267 s68.267,30.72,68.267,68.267S412.013,323.267,374.467,323.267 M374.467,144.067c-61.44,0-110.933,49.493-110.933,110.933 s49.493,110.933,110.933,110.933S485.4,316.44,485.4,255S435.907,144.067,374.467,144.067"
      ></path>
      <path
        style="fill: #3db9f9"
        d="M374.467,144.067c-2.56,0-5.973,0-8.533,0.853c57.173,4.267,102.4,52.053,102.4,110.08 s-45.227,105.813-102.4,110.08c2.56,0,5.973,0.853,8.533,0.853c61.44,0,110.933-49.493,110.933-110.933 S435.907,144.067,374.467,144.067"
      ></path>
      <path
        style="fill: #63d3fd"
        d="M400.067,255c0,14.507-11.093,25.6-25.6,25.6c-14.507,0-25.6-11.093-25.6-25.6 c0-14.507,11.093-25.6,25.6-25.6C388.973,229.4,400.067,240.493,400.067,255"
      ></path>
      <g>
        <path
          style="fill: #ffe100"
          d="M168.813,502.467h-99.84c-5.973,0-10.24-4.267-10.24-9.387V434.2H178.2v58.88 C178.2,498.2,173.933,502.467,168.813,502.467"
        ></path>
        <polygon
          style="fill: #ffe100"
          points="58.733,383 178.2,383 178.2,127 58.733,127 "
        ></polygon>
        <path
          style="fill: #ffe100"
          d="M178.2,75.8H58.733V16.92c0-5.12,4.267-9.387,10.24-9.387h99.84c5.12,0,9.387,4.267,9.387,9.387 V75.8z"
        ></path>
        <path
          style="fill: #ffe100"
          d="M202.947,127H34.84c-5.973,0-10.24-4.267-10.24-9.387V85.187c0-5.12,4.267-9.387,10.24-9.387 h168.107c5.12,0,9.387,4.267,9.387,9.387v31.573C212.333,122.733,208.067,127,202.947,127"
        ></path>
        <path
          style="fill: #ffe100"
          d="M202.947,434.2H34.84c-5.973,0-10.24-4.267-10.24-9.387V393.24c0-5.973,4.267-10.24,10.24-10.24 h168.107c5.12,0,9.387,4.267,9.387,9.387v31.573C212.333,429.933,208.067,434.2,202.947,434.2"
        ></path>
      </g>
      <g>
        <path
          style="fill: #ffffff"
          d="M84.333,493.08V434.2h-25.6v58.88c0,5.12,4.267,9.387,10.24,9.387h25.6 C88.6,502.467,84.333,498.2,84.333,493.08"
        ></path>
        <polygon
          style="fill: #ffffff"
          points="58.733,383 84.333,383 84.333,127 58.733,127 "
        ></polygon>
        <path
          style="fill: #ffffff"
          d="M94.573,7.533h-25.6c-5.973,0-10.24,4.267-10.24,9.387V75.8h25.6V16.92 C84.333,11.8,88.6,7.533,94.573,7.533"
        ></path>
        <path
          style="fill: #ffffff"
          d="M50.2,117.613V85.187c0-5.12,4.267-9.387,10.24-9.387h-25.6c-5.973,0-10.24,4.267-10.24,9.387 v31.573c0,5.973,4.267,10.24,10.24,10.24h25.6C54.467,127,50.2,122.733,50.2,117.613"
        ></path>
        <path
          style="fill: #ffffff"
          d="M50.2,424.813V393.24c0-5.973,4.267-10.24,10.24-10.24h-25.6c-5.973,0-10.24,4.267-10.24,9.387 v31.573c0,5.973,4.267,10.24,10.24,10.24h25.6C54.467,434.2,50.2,429.933,50.2,424.813"
        ></path>
      </g>
      <path
        style="fill: #ffe100"
        d="M263.533,255c0-22.187,6.827-42.667,17.92-59.733H178.2v119.467h103.253 C270.36,297.667,263.533,277.187,263.533,255"
      ></path>
      <path
        d="M168.813,511h-99.84c-10.24,0-18.773-8.533-18.773-17.92V434.2c0-5.12,3.413-8.533,8.533-8.533H178.2 c5.12,0,8.533,3.413,8.533,8.533v58.88C186.733,502.467,179.053,511,168.813,511z M67.267,442.733v50.347 c0,0,0.853,0.853,1.707,0.853h99.84c0.853,0,0.853-0.853,0.853-0.853v-50.347H67.267z"
      ></path>
      <path
        d="M178.2,391.533H58.733c-5.12,0-8.533-3.413-8.533-8.533V127c0-5.12,3.413-8.533,8.533-8.533H178.2 c5.12,0,8.533,3.413,8.533,8.533v256C186.733,388.12,183.32,391.533,178.2,391.533z M67.267,374.467h102.4V135.533h-102.4V374.467z "
      ></path>
      <path
        d="M178.2,84.333H58.733c-4.267,0-8.533-3.413-8.533-8.533V16.92C50.2,7.533,58.733-1,68.973-1h99.84 c10.24,0,17.92,8.533,17.92,17.92V75.8C186.733,80.92,183.32,84.333,178.2,84.333z M67.267,67.267h102.4V16.92 c0,0,0-0.853-0.853-0.853h-99.84c-0.853,0-1.707,0.853-1.707,0.853V67.267z"
      ></path>
      <path
        d="M202.947,135.533H34.84c-10.24,0-18.773-8.533-18.773-17.92V85.187c0-9.387,8.533-17.92,18.773-17.92h168.107 c10.24,0,17.92,8.533,17.92,17.92v31.573C220.867,127,213.187,135.533,202.947,135.533z M34.84,84.333 c-0.853,0-1.707,0.853-1.707,0.853v31.573c0,0.853,0.853,1.707,1.707,1.707h168.107c0.853,0,0.853-0.853,0.853-0.853V85.187 c0,0,0-0.853-0.853-0.853H34.84z"
      ></path>
      <path
        d="M202.947,442.733H34.84c-10.24,0-18.773-8.533-18.773-17.92V393.24c0-10.24,8.533-18.773,18.773-18.773h168.107 c10.24,0,17.92,8.533,17.92,17.92v31.573C220.867,434.2,213.187,442.733,202.947,442.733z M34.84,391.533 c-0.853,0-1.707,0.853-1.707,0.853v31.573c0,0.853,0.853,1.707,1.707,1.707h168.107c0.853,0,0.853-0.853,0.853-0.853V393.24 c0-0.853-0.853-0.853-0.853-0.853H34.84V391.533z"
      ></path>
      <path
        d="M374.467,289.133c-18.773,0-34.133-15.36-34.133-34.133s15.36-34.133,34.133-34.133c18.773,0,34.133,15.36,34.133,34.133 S393.24,289.133,374.467,289.133z M374.467,237.933c-9.387,0-17.067,7.68-17.067,17.067s7.68,17.067,17.067,17.067 s17.067-7.68,17.067-17.067S383.853,237.933,374.467,237.933z"
      ></path>
      <path
        d="M374.467,237.933c-5.12,0-8.533-3.413-8.533-8.533v-42.667c0-5.12,3.413-8.533,8.533-8.533c5.12,0,8.533,3.413,8.533,8.533 V229.4C383,234.52,379.587,237.933,374.467,237.933z"
      ></path>
      <path
        d="M323.267,297.667c-2.56,0-5.12-1.707-6.827-3.413c-2.56-4.267-1.707-9.387,2.56-11.947l25.6-17.067 c4.267-2.56,9.387-1.707,11.947,2.56c2.56,4.267,1.707,9.387-2.56,11.947l-25.6,17.067 C326.68,296.813,324.973,297.667,323.267,297.667z"
      ></path>
      <path
        d="M425.667,297.667c-1.707,0-3.413-0.853-5.12-1.707l-25.6-17.067c-4.267-2.56-5.12-7.68-2.56-11.947 c2.56-4.267,7.68-5.12,11.947-2.56l25.6,17.067c4.267,2.56,5.12,7.68,2.56,11.947C431.64,295.96,428.227,297.667,425.667,297.667z"
      ></path>
      <path
        d="M281.453,323.267H178.2c-5.12,0-8.533-3.413-8.533-8.533V195.267c0-5.12,3.413-8.533,8.533-8.533h103.253 c3.413,0,5.973,1.707,7.68,4.267c1.707,2.56,1.707,5.973,0,8.533C278.04,216.6,272.067,235.373,272.067,255 s5.973,38.4,16.213,55.467c1.707,2.56,1.707,5.973,0,8.533C287.427,321.56,284.013,323.267,281.453,323.267z M186.733,306.2h80.213 C259.267,289.987,255,272.92,255,255s4.267-34.987,11.947-51.2h-80.213V306.2z"
      ></path>
      <path
        d="M374.467,374.467C308.76,374.467,255,320.707,255,255s53.76-119.467,119.467-119.467S493.933,189.293,493.933,255 S440.173,374.467,374.467,374.467z M374.467,152.6c-56.32,0-102.4,46.08-102.4,102.4s46.08,102.4,102.4,102.4 s102.4-46.08,102.4-102.4S430.787,152.6,374.467,152.6z M374.467,331.8c-42.667,0-76.8-34.133-76.8-76.8s34.133-76.8,76.8-76.8 s76.8,34.133,76.8,76.8S417.133,331.8,374.467,331.8z M374.467,195.267c-33.28,0-59.733,26.453-59.733,59.733 s26.453,59.733,59.733,59.733S434.2,288.28,434.2,255S407.747,195.267,374.467,195.267z"
      ></path>
    </g>
  </g>
</svg>
