<svg
  height="200px"
  width="200px"
  version="1.1"
  id="Layer_1"
  xmlns="http://www.w3.org/2000/svg"
  xmlns:xlink="http://www.w3.org/1999/xlink"
  viewBox="0 0 503.607 503.607"
  xml:space="preserve"
  fill="#000000"
>
  <g id="SVGRepo_bgCarrier" stroke-width="0"></g>
  <g
    id="SVGRepo_tracerCarrier"
    stroke-linecap="round"
    stroke-linejoin="round"
  ></g>
  <g id="SVGRepo_iconCarrier">
    <g transform="translate(1 1)">
      <path
        style="fill: #63d3fd"
        d="M328.023,479.944L328.023,479.944c-13.43,13.43-36.092,13.43-49.521,0 c-13.43-13.429-13.43-35.252,0-53.718l24.341-36.931l24.341,36.931C341.452,448.049,341.452,466.515,328.023,479.944"
      ></path>
      <path
        style="fill: #ffffff"
        d="M277.662,426.226l24.341-36.931l9.233,13.429l-15.948,23.502c-13.43,18.466-13.43,40.289,0,53.718 c4.197,4.197,10.072,7.554,15.948,9.233c-11.751,3.357-24.341,0-33.574-9.233C264.233,466.515,264.233,444.692,277.662,426.226"
      ></path>
      <g>
        <path
          style="fill: #ffe100"
          d="M74.541,238.213v117.508H17.466c-5.875,0-10.072-4.197-10.072-9.233v-99.043 c0-5.036,4.197-9.233,10.072-9.233H74.541z"
        ></path>
        <path
          style="fill: #ffe100"
          d="M292.77,87.131h-67.148c-3.357,0-5.875-1.679-7.554-5.036l-16.787-33.574 c-1.679-2.518-0.839-5.875,0-8.393c2.518-1.679,5.036-3.357,7.554-3.357h100.721c2.518,0,5.875,1.679,7.554,4.197 c1.679,2.518,1.679,5.875,0,8.393l-16.787,33.574C299.485,85.452,296.128,87.131,292.77,87.131z M230.659,70.344h57.075 l8.393-16.787h-73.862L230.659,70.344z"
        ></path>
        <path
          style="fill: #ffe100"
          d="M333.898,78.738H168.548c-5.875,0-10.072,4.197-10.072,9.233v31.056 c0,5.036,4.197,9.233,9.233,9.233h165.351c5.036,0,9.233-4.197,9.233-9.233V87.97C343.131,82.934,338.934,78.738,333.898,78.738"
        ></path>
        <polygon
          style="fill: #ffe100"
          points="200.443,238.213 301.164,238.213 301.164,129.098 200.443,129.098 "
        ></polygon>
        <path
          style="fill: #ffe100"
          d="M494.213,247.446v98.203c0,5.036-4.197,9.233-9.233,9.233h-57.915V238.213h57.915 C490.016,238.213,494.213,242.41,494.213,247.446"
        ></path>
      </g>
      <g>
        <path
          style="fill: #ffa800"
          d="M333.898,78.738h-25.18c5.036,0,9.233,4.197,9.233,9.233v31.056c0,5.036-4.197,9.233-9.233,9.233 h25.18c5.036,0,9.233-4.197,9.233-9.233V87.97C343.131,82.934,338.934,78.738,333.898,78.738"
        ></path>
        <polygon
          style="fill: #ffa800"
          points="275.984,238.213 301.164,238.213 301.164,129.098 275.984,129.098 "
        ></polygon>
        <path
          style="fill: #ffa800"
          d="M484.98,238.213H459.8c5.036,0,9.233,4.197,9.233,9.233v98.203c0,5.036-4.197,9.233-9.233,9.233 h25.18c5.036,0,9.233-4.197,9.233-9.233v-98.203C494.213,242.41,490.016,238.213,484.98,238.213"
        ></path>
      </g>
      <g>
        <path
          style="fill: #ffffff"
          d="M168.548,78.738h25.18c-5.875,0-10.072,4.197-10.072,9.233v31.056c0,5.036,4.197,9.233,9.233,9.233 h-25.18c-5.036,0-9.233-4.197-9.233-9.233V87.97C158.475,82.934,162.672,78.738,168.548,78.738"
        ></path>
        <polygon
          style="fill: #ffffff"
          points="200.443,238.213 225.623,238.213 225.623,129.098 200.443,129.098 "
        ></polygon>
        <path
          style="fill: #ffffff"
          d="M17.466,238.213h25.18c-5.875,0-10.072,4.197-10.072,9.233v98.203 c0,5.875,4.197,10.072,10.072,10.072h-25.18c-5.875,0-10.072-4.197-10.072-9.233v-99.043 C7.393,242.41,11.59,238.213,17.466,238.213"
        ></path>
      </g>
      <g>
        <polygon
          style="fill: #ffe100"
          points="124.902,355.721 376.705,355.721 376.705,238.213 124.902,238.213 "
        ></polygon>
        <path
          style="fill: #ffe100"
          d="M124.902,213.872v165.351c0,5.036-4.197,9.233-9.233,9.233H84.613 c-5.875,0.839-10.072-3.357-10.072-8.393v-166.19c0-5.036,4.197-9.233,10.072-9.233h31.056 C120.705,204.639,124.902,208.836,124.902,213.872"
        ></path>
        <path
          style="fill: #ffe100"
          d="M427.066,213.872v165.351c0,5.036-4.197,9.233-9.233,9.233h-31.056 c-5.036,0-9.233-4.197-9.233-9.233V213.872c0-5.036,4.197-9.233,9.233-9.233h31.056 C422.869,204.639,427.066,208.836,427.066,213.872"
        ></path>
      </g>
      <path
        style="fill: #3db9f9"
        d="M328.023,426.226l-24.341-36.931l-9.233,13.429l15.948,23.502c13.43,18.466,13.43,40.289,0,53.718 c-4.197,4.197-10.072,7.554-15.948,9.233c11.751,3.357,24.341,0,33.574-9.233C341.452,466.515,341.452,444.692,328.023,426.226"
      ></path>
      <path
        style="fill: #e4667f"
        d="M150.082,45.164h201.443c9.233,0,16.787-7.554,16.787-16.787s-7.554-16.787-16.787-16.787H150.082 c-9.233,0-16.787,7.554-16.787,16.787S140.849,45.164,150.082,45.164"
      ></path>
      <path
        style="fill: #dd3859"
        d="M351.525,11.59h-25.18c9.233,0,16.787,7.554,16.787,16.787s-7.554,16.787-16.787,16.787h25.18 c9.233,0,16.787-7.554,16.787-16.787S360.757,11.59,351.525,11.59"
      ></path>
      <path
        style="fill: #ffffff"
        d="M150.082,11.59h25.18c-9.233,0-16.787,7.554-16.787,16.787s7.554,16.787,16.787,16.787h-25.18 c-9.233,0-16.787-7.554-16.787-16.787S140.849,11.59,150.082,11.59"
      ></path>
      <path
        d="M333.898,137.492H168.548c-10.072,0-18.466-8.393-18.466-17.626V87.97c0-9.233,8.393-17.626,18.466-17.626h165.351 c10.072,0,17.626,8.393,17.626,17.626v31.056C351.525,129.098,343.97,137.492,333.898,137.492z M168.548,87.131 c-0.839,0-1.679,0.839-1.679,0.839v31.056c0,0.839,0.839,0.839,0.839,0.839h165.351c0.839,0,0.839-0.839,0.839-0.839V87.97 c0.839,0,0.839-0.839,0-0.839H168.548z"
      ></path>
      <path
        d="M309.557,246.607H192.049V120.705h117.508V246.607z M208.836,229.82h83.934v-92.328h-83.934V229.82z"
      ></path>
      <path
        d="M284.377,87.131h-67.148c-3.357,0-5.875-1.679-7.554-5.036l-16.787-33.574c-1.679-2.518-0.839-5.875,0-8.393 c2.518-1.679,5.036-3.357,7.554-3.357h100.721c2.518,0,5.875,1.679,7.554,4.197c1.679,2.518,1.679,5.875,0,8.393l-16.787,33.574 C291.092,85.452,287.734,87.131,284.377,87.131z M222.266,70.344h57.075l8.393-16.787h-73.862L222.266,70.344z"
      ></path>
      <path
        d="M351.525,53.557H150.082c-14.269,0-25.18-10.911-25.18-25.18s10.911-25.18,25.18-25.18h201.443 c14.269,0,25.18,10.911,25.18,25.18S365.793,53.557,351.525,53.557z M150.082,19.984c-5.036,0-8.393,3.357-8.393,8.393 s3.357,8.393,8.393,8.393h201.443c5.036,0,8.393-3.357,8.393-8.393s-3.357-8.393-8.393-8.393H150.082z"
      ></path>
      <path
        d="M484.98,364.115h-57.915c-5.036,0-8.393-3.357-8.393-8.393V238.213c0-5.036,3.357-8.393,8.393-8.393h57.915 c10.072,0,17.626,8.393,17.626,17.626v98.203C502.607,355.721,495.052,364.115,484.98,364.115z M435.459,347.328h49.521 c0.839,0,0.839-0.839,0.839-0.839v-99.043c0-0.839-0.839-0.839-0.839-0.839h-49.521V347.328z"
      ></path>
      <path
        d="M376.705,364.115H124.902c-5.036,0-8.393-3.357-8.393-8.393V238.213c0-5.036,3.357-8.393,8.393-8.393h251.803 c5.036,0,8.393,3.357,8.393,8.393v117.508C385.098,360.757,381.741,364.115,376.705,364.115z M133.295,347.328h235.016V246.607 H133.295V347.328z"
      ></path>
      <path
        d="M74.541,364.115H17.466C7.393,364.115-1,355.721-1,346.489v-99.043c0-9.233,8.393-17.626,18.466-17.626h57.075 c5.036,0,8.393,3.357,8.393,8.393v117.508C82.934,360.757,79.577,364.115,74.541,364.115z M17.466,246.607 c-0.839,0-1.679,0.839-1.679,0.839v98.203c0,0.839,0.839,1.679,1.679,1.679h48.682V246.607H17.466z"
      ></path>
      <path
        d="M115.669,397.689H84.613c-10.072,0-18.466-8.393-18.466-17.626v-166.19c0-9.233,8.393-17.626,18.466-17.626h31.056 c10.072,0,17.626,8.393,17.626,17.626v165.351C133.295,389.295,125.741,397.689,115.669,397.689z M84.613,213.033 c-0.839,0-1.679,0.839-1.679,0.839v165.351c0,0.839,0.839,1.679,1.679,1.679h31.056c0.839,0,0.839-0.839,0.839-0.839v-166.19 c0-0.839-0.839-0.839-0.839-0.839H84.613z"
      ></path>
      <path
        d="M417.833,397.689h-31.056c-10.072,0-18.466-8.393-18.466-17.626v-166.19c0-10.072,8.393-17.626,17.626-17.626h31.056 c10.072,0,17.626,8.393,17.626,17.626v165.351C435.459,389.295,427.905,397.689,417.833,397.689z M386.777,213.033 c-0.839,0-0.839,0.839-0.839,0.839v165.351c0,0.839,0.839,0.839,0.839,0.839h31.056c0.839,0,0.839-0.839,0.839-0.839V213.872 c0-0.839-0.839-0.839-0.839-0.839H386.777z"
      ></path>
      <path
        d="M259.197,364.115c-5.036,0-8.393-3.357-8.393-8.393v-16.787h-16.787c-5.036,0-8.393-3.357-8.393-8.393v-25.18h-16.787 c-5.036,0-8.393-3.357-8.393-8.393s3.357-8.393,8.393-8.393h25.18c5.036,0,8.393,3.357,8.393,8.393v25.18h16.787 c5.036,0,8.393,3.357,8.393,8.393v25.18C267.59,360.757,264.233,364.115,259.197,364.115z"
      ></path>
      <path
        d="M301.164,498.41c-11.751,0-22.662-4.197-30.216-12.59c-11.751-11.751-20.984-31.895-0.839-63.79l25.18-36.931 c3.357-5.036,10.911-5.036,14.269,0l24.341,36.931c15.948,21.823,15.108,47.843-0.839,64.629 C323.826,494.213,312.915,498.41,301.164,498.41z M301.164,404.403l-17.626,26.02c-16.787,26.859-5.036,39.449-0.839,42.807 c10.072,10.072,27.698,10.072,37.771,0c10.911-10.911,10.072-27.698-0.839-42.807L301.164,404.403z"
      ></path>
    </g>
  </g>
</svg>
