<svg
  viewBox="0 0 64 64"
  data-name="Layer 1"
  id="Layer_1"
  xmlns="http://www.w3.org/2000/svg"
  fill="#000000"
>
  <g id="SVGRepo_bgCarrier" stroke-width="0"></g>
  <g
    id="SVGRepo_tracerCarrier"
    stroke-linecap="round"
    stroke-linejoin="round"
  ></g>
  <g id="SVGRepo_iconCarrier">
    <defs>
      <style>
        .cls-1 {
          fill: #fcdd7c;
        }
        .cls-2 {
          fill: #65c8d0;
        }
        .cls-3 {
          fill: #8f6c56;
        }
        .cls-4 {
          fill: #838bc5;
        }
      </style>
    </defs>
    <path
      class="cls-1"
      d="M24.89,17l-1.78-.89,1.27-2.56H22a1,1,0,0,1-.85-.47,1,1,0,0,1,0-1l2-4L24.89,9l-1.27,2.55H26A1,1,0,0,1,26.89,13Z"
    ></path>
    <path
      class="cls-2"
      d="M10.18,27l-.36-2c.22,0,21.6-4,27.3-14.49l1.76,1C32.72,22.79,11.1,26.83,10.18,27Z"
    ></path>
    <path
      class="cls-3"
      d="M21.46,44H23V42H21l-1.16-5H21V35H19.36L18,29H30l-4-4H17L17,24.77a1,1,0,0,0-1.94,0L15,25H6L2,29H14l-1.4,6H11v2h1.17L11,42H9v2h1.54L8.21,54H7v2h4V54h-.74l.5-2.15L16,47.57l5.24,4.28.5,2.15H21v2h4V54H23.79Zm-2.52-2H13.83l4.22-3.8Zm-1.63-7H14.69L16,29.4Zm-3.08,2h2.16l-2.74,2.47ZM11.51,48.66l.93-4,2,1.62ZM16,45l-1.2-1h2.4Zm1.58,1.29,2-1.62.93,4Z"
    ></path>
    <polygon
      class="cls-4"
      points="29 34 29 32 27 32 27 29 25 29 25 32 23 32 23 34 25 34 25 35 23 35 23 37 25 37 25 39 27 39 27 37 29 37 29 35 27 35 27 34 29 34"
    ></polygon>
    <polygon
      class="cls-4"
      points="7 39 7 37 9 37 9 35 7 35 7 34 9 34 9 32 7 32 7 29 5 29 5 32 3 32 3 34 5 34 5 35 3 35 3 37 5 37 5 39 7 39"
    ></polygon>
    <path
      class="cls-3"
      d="M53.46,28H55V26H53l-1.16-5H53V19H51.36L50,13H62L58,9H49L49,8.77a1,1,0,0,0-1.94,0L47,9H38l-4,4H46l-1.4,6H43v2h1.17L43,26H41v2h1.54L40.21,38H39v2h4V38h-.74l.5-2.15L48,31.57l5.24,4.28.5,2.15H53v2h4V38H55.79Zm-2.52-2H45.83l4.22-3.8Zm-1.63-7H46.69L48,13.4Zm-3.08,2h2.16l-2.74,2.47ZM43.51,32.66l.93-4,2,1.62ZM48,29l-1.2-1h2.4Zm1.58,1.29,2-1.62.93,4Z"
    ></path>
    <polygon
      class="cls-4"
      points="61 18 61 16 59 16 59 13 57 13 57 16 55 16 55 18 57 18 57 19 55 19 55 21 57 21 57 23 59 23 59 21 61 21 61 19 59 19 59 18 61 18"
    ></polygon>
    <polygon
      class="cls-4"
      points="39 23 39 21 41 21 41 19 39 19 39 18 41 18 41 16 39 16 39 13 37 13 37 16 35 16 35 18 37 18 37 19 35 19 35 21 37 21 37 23 39 23"
    ></polygon>
  </g>
</svg>
