<svg
  fill="#000000"
  viewBox="0 0 24 24"
  id="flood"
  data-name="Line Color"
  xmlns="http://www.w3.org/2000/svg"
  class="icon line-color"
>
  <g id="SVGRepo_bgCarrier" stroke-width="0"></g>
  <g
    id="SVGRepo_tracerCarrier"
    stroke-linecap="round"
    stroke-linejoin="round"
  ></g>
  <g id="SVGRepo_iconCarrier">
    <polyline
      id="primary"
      points="4 9.71 12 4 20 9.71"
      style="
        fill: none;
        stroke: #000000;
        stroke-linecap: round;
        stroke-linejoin: round;
        stroke-width: 2;
      "
    ></polyline>
    <path
      id="primary-2"
      data-name="primary"
      d="M18,16V8.29m-12,0V16"
      style="
        fill: none;
        stroke: #000000;
        stroke-linecap: round;
        stroke-linejoin: round;
        stroke-width: 2;
      "
    ></path>
    <path
      id="secondary"
      d="M3,19.5c1.5,0,1.5.5,3,.5s1.5-.5,3-.5,1.5.5,3,.5,1.5-.5,3-.5,1.5.5,3,.5,1.5-.5,3-.5"
      style="
        fill: none;
        stroke: #2ca9bc;
        stroke-linecap: round;
        stroke-linejoin: round;
        stroke-width: 2;
      "
    ></path>
    <path
      id="secondary-2"
      data-name="secondary"
      d="M3,15.5c1.5,0,1.5.5,3,.5s1.5-.5,3-.5,1.5.5,3,.5,1.5-.5,3-.5,1.5.5,3,.5,1.5-.5,3-.5"
      style="
        fill: none;
        stroke: #2ca9bc;
        stroke-linecap: round;
        stroke-linejoin: round;
        stroke-width: 2;
      "
    ></path>
  </g>
</svg>
