<svg
  fill="#000000"
  viewBox="0 0 24 24"
  id="flood"
  data-name="Flat Color"
  xmlns="http://www.w3.org/2000/svg"
  class="icon flat-color"
>
  <g id="SVGRepo_bgCarrier" stroke-width="0"></g>
  <g
    id="SVGRepo_tracerCarrier"
    stroke-linecap="round"
    stroke-linejoin="round"
  ></g>
  <g id="SVGRepo_iconCarrier">
    <path
      id="primary"
      d="M20.58,8.9l-8-5.71a1,1,0,0,0-1.16,0l-8,5.71a1,1,0,0,0,1.16,1.62l.42-.3V16a1,1,0,0,0,1,1,5.14,5.14,0,0,0,1.81-.3A3.1,3.1,0,0,1,9,16.5a3.1,3.1,0,0,1,1.18.2A5.25,5.25,0,0,0,12,17a5.25,5.25,0,0,0,1.82-.3A3.1,3.1,0,0,1,15,16.5a3.1,3.1,0,0,1,1.18.2A5.27,5.27,0,0,0,18,17a1,1,0,0,0,1-1V10.22l.42.3a1,1,0,0,0,.58.19,1,1,0,0,0,.58-1.81Z"
      style="fill: #030303"
    ></path>
    <path
      id="secondary"
      d="M18,21a5.16,5.16,0,0,1-1.82-.3A3.2,3.2,0,0,0,15,20.5a3.1,3.1,0,0,0-1.18.2A5.21,5.21,0,0,1,12,21a5.14,5.14,0,0,1-1.81-.3A3.2,3.2,0,0,0,9,20.5a3.14,3.14,0,0,0-1.18.2A5.14,5.14,0,0,1,6,21a5.16,5.16,0,0,1-1.82-.3A3.1,3.1,0,0,0,3,20.5a1,1,0,0,1,0-2,5.14,5.14,0,0,1,1.81.3A3.2,3.2,0,0,0,6,19a3.14,3.14,0,0,0,1.18-.2A5.14,5.14,0,0,1,9,18.5a5.16,5.16,0,0,1,1.82.3A3.1,3.1,0,0,0,12,19a3.2,3.2,0,0,0,1.19-.2A5.14,5.14,0,0,1,15,18.5a5.21,5.21,0,0,1,1.82.3,3.61,3.61,0,0,0,2.37,0A5.25,5.25,0,0,1,21,18.5a1,1,0,0,1,0,2,3.2,3.2,0,0,0-1.19.2A5.14,5.14,0,0,1,18,21Zm1.81-4.3A3.2,3.2,0,0,1,21,16.5a1,1,0,0,0,0-2,5.25,5.25,0,0,0-1.82.3,3.61,3.61,0,0,1-2.37,0A5.21,5.21,0,0,0,15,14.5a5.14,5.14,0,0,0-1.81.3A3.2,3.2,0,0,1,12,15a3.1,3.1,0,0,1-1.18-.2A5.16,5.16,0,0,0,9,14.5a5.14,5.14,0,0,0-1.81.3A3.14,3.14,0,0,1,6,15a3.2,3.2,0,0,1-1.19-.2A5.14,5.14,0,0,0,3,14.5a1,1,0,0,0,0,2,3.1,3.1,0,0,1,1.18.2A5.16,5.16,0,0,0,6,17a5.14,5.14,0,0,0,1.81-.3A3.14,3.14,0,0,1,9,16.5a3.2,3.2,0,0,1,1.19.2A5.14,5.14,0,0,0,12,17a5.21,5.21,0,0,0,1.82-.3A3.1,3.1,0,0,1,15,16.5a3.2,3.2,0,0,1,1.19.2,5.64,5.64,0,0,0,3.63,0Z"
      style="fill: #2ca9bc"
    ></path>
  </g>
</svg>
