<svg
  height="200px"
  width="200px"
  version="1.1"
  id="Layer_1"
  xmlns="http://www.w3.org/2000/svg"
  xmlns:xlink="http://www.w3.org/1999/xlink"
  viewBox="0 0 512.001 512.001"
  xml:space="preserve"
  fill="#000000"
>
  <g id="SVGRepo_bgCarrier" stroke-width="0"></g>
  <g
    id="SVGRepo_tracerCarrier"
    stroke-linecap="round"
    stroke-linejoin="round"
  ></g>
  <g id="SVGRepo_iconCarrier">
    <path
      style="fill: #c3dff7"
      d="M411.452,179.089c-3.64-2.102-7.17-3.706-10.679-5.144c0.882-5.035,1.408-10.428,1.424-16.243 c0.153-53.712-37.589-119.109-84.334-146.097C294.348-1.971,273.046-3.229,257.662,5.71l-30.186,17.542 c-3.991-3.677-8.209-6.879-12.596-9.411c-12.353-7.132-23.542-7.796-31.621-3.102l-32.537,18.908 c-15.025-5.839-28.479-5.336-38.764,0.641L50.707,65.886c0.041-0.024,0.085-0.043,0.127-0.067 c-12.759,7.343-20.682,23.042-20.745,45.388c-0.128,44.862,31.421,99.505,70.44,122.033l249.21,143.881 c19.742,11.398,37.61,12.391,50.478,4.802c-0.062,0.037-0.115,0.088-0.178,0.123l61.253-35.596 c12.689-7.374,20.558-23.055,20.622-45.342C482.041,256.273,450.494,201.63,411.452,179.089z"
    ></path>
    <path
      style="fill: #abcae3"
      d="M256.611,47.203c46.743,26.987,84.485,92.384,84.334,146.097c-0.017,5.815-0.543,11.208-1.424,16.243 c3.508,1.438,7.039,3.042,10.679,5.144c39.042,22.541,70.589,77.183,70.463,122.02c-0.128,44.862-31.881,62.958-70.923,40.417 L100.528,233.24c-39.02-22.528-70.567-77.171-70.44-122.033c0.127-44.836,31.88-62.932,70.9-40.403 c2.752,1.589,5.438,3.369,8.1,5.264c0.001-0.408-0.042-0.817-0.041-1.224c0.079-28.207,20.032-39.577,44.58-25.405 c8.012,4.626,15.486,11.419,21.976,19.432C186.437,35.478,218.635,25.277,256.611,47.203z"
    ></path>
    <path
      style="fill: #c3dff7"
      d="M155.983,327.041c3.501,54.99-63.912,73.053-88.375,23.68c-1.298-2.618-2.063-5.476-2.249-8.393 c-3.501-54.99,63.912-73.053,88.375-23.68C155.032,321.267,155.797,324.124,155.983,327.041z"
    ></path>
    <path
      style="fill: #abcae3"
      d="M128.114,315.22c1.687,26.101-30.28,34.695-41.913,11.315c-0.62-1.245-0.999-2.611-1.089-3.999 c-1.687-26.101,30.28-34.695,41.913-11.315C127.644,312.467,128.024,313.831,128.114,315.22z"
    ></path>
    <path
      style="fill: #c3dff7"
      d="M270.687,393.265c3.501,54.99-63.912,73.053-88.375,23.68c-1.298-2.618-2.063-5.476-2.249-8.393 c-3.501-54.99,63.912-73.053,88.375-23.68C269.735,387.492,270.501,390.349,270.687,393.265z"
    ></path>
    <path
      style="fill: #abcae3"
      d="M242.817,381.445c1.687,26.101-30.28,34.695-41.913,11.315c-0.62-1.245-0.999-2.611-1.089-3.999 c-1.687-26.101,30.28-34.695,41.913-11.315C242.348,378.69,242.727,380.056,242.817,381.445z"
    ></path>
    <path
      style="fill: #c3dff7"
      d="M385.39,459.489c3.501,54.99-63.912,73.053-88.375,23.68c-1.298-2.618-2.063-5.476-2.249-8.393 c-3.501-54.99,63.912-73.053,88.375-23.68C384.439,453.715,385.204,456.573,385.39,459.489z"
    ></path>
    <path
      style="fill: #abcae3"
      d="M357.521,447.668c1.687,26.101-30.28,34.695-41.913,11.315c-0.62-1.245-0.999-2.611-1.089-3.999 c-1.687-26.101,30.28-34.695,41.913-11.315C357.052,444.915,357.431,446.28,357.521,447.668z"
    ></path>
  </g>
</svg>
