<svg
  height="200px"
  width="200px"
  version="1.1"
  id="Layer_1"
  xmlns="http://www.w3.org/2000/svg"
  xmlns:xlink="http://www.w3.org/1999/xlink"
  viewBox="0 0 512.002 512.002"
  xml:space="preserve"
  fill="#000000"
>
  <g id="SVGRepo_bgCarrier" stroke-width="0"></g>
  <g
    id="SVGRepo_tracerCarrier"
    stroke-linecap="round"
    stroke-linejoin="round"
  ></g>
  <g id="SVGRepo_iconCarrier">
    <g>
      <path
        style="fill: #7f6e5d"
        d="M477.943,110.345H34.057C15.254,110.345,0,125.591,0,144.402v293.817 c0,18.812,15.254,34.057,34.057,34.057H370.15c-22.66-25.98-34.701-59.674-34.701-97.103v-79.448 c41.428-5.288,69.438-22.51,88.276-35.31c18.838,12.8,46.848,30.023,88.276,35.31V144.402 C512,125.591,496.755,110.345,477.943,110.345"
      ></path>
      <path
        style="fill: #b29a84"
        d="M105.933,472.276H52.967V86.899c0-6.55,5.314-11.864,11.864-11.864h29.237 c6.55,0,11.864,5.314,11.864,11.864V472.276z"
      ></path>
      <path
        style="fill: #71c285"
        d="M423.726,507.587c-11.9-4.67-24.382-9.066-35.31-17.655c-34.648-27.233-52.966-68.22-52.966-114.759 v-79.448c41.428-5.288,69.438-22.51,88.276-35.31c18.838,12.8,46.848,30.023,88.276,35.31v79.448 c0,46.539-18.326,87.526-52.966,114.759C448.099,498.521,435.625,502.917,423.726,507.587"
      ></path>
      <path
        style="fill: #ffffff"
        d="M379.588,410.483c-4.873,0-8.828-3.955-8.828-8.828v-61.793c0-3.346,1.889-6.4,4.882-7.901 l35.31-17.655c4.361-2.18,9.657-0.406,11.847,3.955c2.18,4.361,0.406,9.657-3.955,11.847l-30.429,15.21v56.338 C388.416,406.528,384.461,410.483,379.588,410.483"
      ></path>
      <g>
        <polygon
          style="fill: #b29a84"
          points="141.243,110.345 211.864,110.345 211.864,75.035 141.243,75.035 "
        ></polygon>
        <polygon
          style="fill: #b29a84"
          points="300.14,110.345 370.76,110.345 370.76,75.035 300.14,75.035 "
        ></polygon>
      </g>
      <path
        style="fill: #bdc3c7"
        d="M317.795,52.472v22.563h35.31V56.392c0-28.707-23.27-51.977-51.986-51.977h-90.236 c-28.716,0-51.986,23.27-51.986,51.977v18.644h35.31V52.472c0-9.825,9.975-16.499,19.059-12.747 c27.366,11.308,58.103,11.308,85.469,0C307.82,35.974,317.795,42.647,317.795,52.472"
      ></path>
      <path
        style="fill: #b29a84"
        d="M423.726,260.414c9.34,6.347,20.948,13.771,35.31,20.295V86.899c0-6.55-5.314-11.864-11.864-11.864 h-29.237c-6.55,0-11.864,5.314-11.864,11.864v184.655C412.674,267.732,418.579,263.91,423.726,260.414"
      ></path>
      <path
        style="fill: #f0c419"
        d="M335.45,286.897c0,39-31.62,70.621-70.621,70.621s-70.621-31.62-70.621-70.621 s31.62-70.621,70.621-70.621S335.45,247.897,335.45,286.897"
      ></path>
      <path
        style="fill: #ffffff"
        d="M291.312,286.897c0,14.627-11.855,26.483-26.483,26.483c-14.627,0-26.483-11.855-26.483-26.483 s11.855-26.483,26.483-26.483C279.457,260.414,291.312,272.27,291.312,286.897"
      ></path>
      <path
        style="fill: #48a0dc"
        d="M196.523,304.552h-46.451v88.276h105.931v-35.919C227.084,353.289,203.656,332.218,196.523,304.552"
      ></path>
      <path
        style="fill: #d75a4a"
        d="M247.174,172.138v46.451c5.65-1.457,11.546-2.313,17.655-2.313 c29.634,0,54.961,18.264,65.439,44.138h22.837v-88.276H247.174z"
      ></path>
    </g>
  </g>
</svg>
