<svg
  version="1.1"
  id="Layer_1"
  xmlns="http://www.w3.org/2000/svg"
  xmlns:xlink="http://www.w3.org/1999/xlink"
  viewBox="0 0 512.001 512.001"
  xml:space="preserve"
  fill="#000000"
>
  <g id="SVGRepo_bgCarrier" stroke-width="0"></g>
  <g
    id="SVGRepo_tracerCarrier"
    stroke-linecap="round"
    stroke-linejoin="round"
  ></g>
  <g id="SVGRepo_iconCarrier">
    <path
      style="fill: #ffd359"
      d="M355.971,213.054H213.042c-2.382,0-4.313-1.931-4.313-4.313V105.604h151.555V208.74 C360.284,211.123,358.353,213.054,355.971,213.054z"
    ></path>
    <path
      style="fill: #db9840"
      d="M208.729,105.604V208.74c0,2.382,1.931,4.313,4.313,4.313h17.255v-107.45H208.729z"
    ></path>
    <path
      style="fill: #ff5948"
      d="M261.304,183.945h-14.886c-1.787,0-3.235-1.448-3.235-3.235v-14.881c0-1.787,1.448-3.235,3.235-3.235 h14.886c1.787,0,3.235,1.448,3.235,3.235v14.881C264.539,182.497,263.091,183.945,261.304,183.945z"
    ></path>
    <path
      style="fill: #cca38d"
      d="M164.859,205.438V343.45c0,1.186-0.96,2.157-2.157,2.157H30.051c-1.186,0-2.157-0.971-2.157-2.157 V205.438c0-1.196,0.971-2.157,2.157-2.157h132.651C163.9,203.282,164.859,204.242,164.859,205.438z"
    ></path>
    <path
      style="fill: #a68472"
      d="M49.464,343.446V205.434c0-1.191,0.965-2.157,2.157-2.157H30.052c-1.191,0-2.157,0.965-2.157,2.157 v138.013c0,1.191,0.965,2.157,2.157,2.157h21.569C50.43,345.603,49.464,344.638,49.464,343.446z"
    ></path>
    <path
      style="fill: #cca38d"
      d="M376.507,216.696v124.597c0,2.382-1.931,4.313-4.313,4.313h-175.38c-2.382,0-4.313-1.931-4.313-4.313 V216.696c0-2.382,1.931-4.313,4.313-4.313h175.38C374.576,212.383,376.507,214.314,376.507,216.696z"
    ></path>
    <path
      style="fill: #a68472"
      d="M192.504,216.693V341.29c0,2.382,1.931,4.313,4.313,4.313h16.917V212.38h-16.917 C194.436,212.38,192.504,214.311,192.504,216.693z"
    ></path>
    <path
      style="fill: #ff5948"
      d="M363.548,138.207H205.465c-2.382,0-4.313-1.931-4.313-4.313V102.57c0-2.382,1.931-4.313,4.313-4.313 h158.084c2.382,0,4.313,1.931,4.313,4.313v31.322C367.862,136.276,365.931,138.207,363.548,138.207z"
    ></path>
    <path
      style="fill: #d44a3c"
      d="M201.151,102.57v31.323c0,2.382,1.931,4.313,4.313,4.313h17.222v-39.95h-17.222 C203.082,98.257,201.151,100.188,201.151,102.57z"
    ></path>
    <g>
      <path
        style="fill: #5e5456"
        d="M325.829,170.68h-40.182c-4.467,0-8.089-3.621-8.089-8.088c0-4.466,3.622-8.088,8.089-8.088h40.182 c4.467,0,8.089,3.621,8.089,8.088C333.918,167.059,330.297,170.68,325.829,170.68z"
      ></path>
      <path
        style="fill: #5e5456"
        d="M325.829,192.032h-40.182c-4.467,0-8.089-3.621-8.089-8.088c0-4.466,3.622-8.088,8.089-8.088h40.182 c4.467,0,8.089,3.621,8.089,8.088C333.918,188.411,330.297,192.032,325.829,192.032z"
      ></path>
    </g>
    <g>
      <path
        style="fill: #8a6d5e"
        d="M164.859,333.939v9.511c0,1.186-0.96,2.157-2.157,2.157h-9.059l-57.255-59.501L85.161,274.45 l-57.267-59.511v-9.5c0-1.196,0.971-2.157,2.157-2.157h9.07l57.267,59.501l11.216,11.667L164.859,333.939z"
      ></path>
      <path
        style="fill: #8a6d5e"
        d="M164.859,205.438v9.511l-57.255,59.501l-11.216,11.656l-57.267,59.501h-9.07 c-1.186,0-2.157-0.971-2.157-2.157v-9.5l57.267-59.501l11.226-11.667l57.255-59.501h9.059 C163.9,203.282,164.859,204.242,164.859,205.438z"
      ></path>
      <rect
        x="192.502"
        y="248.696"
        style="fill: #8a6d5e"
        width="184.007"
        height="16.174"
      ></rect>
      <rect
        x="192.502"
        y="293.115"
        style="fill: #8a6d5e"
        width="184.007"
        height="16.174"
      ></rect>
    </g>
    <path
      style="fill: #5e5456"
      d="M435.144,176.504c-2.071,0-4.141-0.79-5.721-2.37c-3.158-3.159-3.158-8.279,0.002-11.436 l54.291-54.266c3.159-3.158,8.28-3.157,11.438,0.002c3.158,3.159,3.158,8.279-0.002,11.436l-54.291,54.266 C439.282,175.715,437.214,176.504,435.144,176.504z"
    ></path>
    <path
      style="fill: #ff5948"
      d="M435.976,363.308h-21.585c-1.187,0-2.148-0.962-2.148-2.148V187.577c0-1.187,0.962-2.148,2.148-2.148 h21.585c1.187,0,2.148,0.962,2.148,2.148V361.16C438.126,362.347,437.163,363.308,435.976,363.308z"
    ></path>
    <path
      style="fill: #968789"
      d="M459.428,384.692H4.311c-2.381,0-4.311-1.93-4.311-4.311v-32.353c0-2.381,1.93-4.311,4.311-4.311 h455.117c2.381,0,4.311,1.93,4.311,4.311v32.353C463.739,382.762,461.808,384.692,459.428,384.692z"
    ></path>
    <path
      style="fill: #7d7072"
      d="M21.569,380.38v-32.354c0-2.381,1.93-4.311,4.311-4.311H4.311c-2.381,0-4.311,1.93-4.311,4.311 v32.354c0,2.38,1.93,4.31,4.311,4.31H25.88C23.5,384.692,21.569,382.762,21.569,380.38z"
    ></path>
    <path
      style="fill: #968789"
      d="M443.396,200.758h-36.425c-1.886,0-3.415-1.529-3.415-3.415v-36.418c0-1.886,1.529-3.415,3.415-3.415 h36.425c1.886,0,3.415,1.529,3.415,3.415v36.418C446.811,199.23,445.282,200.758,443.396,200.758z"
    ></path>
    <path
      style="fill: #7d7072"
      d="M425.184,197.345v-36.419c0-1.886,1.529-3.414,3.415-3.414h-21.627c-1.886,0-3.415,1.529-3.415,3.414 v36.419c0,1.886,1.529,3.414,3.415,3.414h21.627C426.712,200.758,425.184,199.23,425.184,197.345z"
    ></path>
    <circle style="fill: #ff5948" cx="492.857" cy="111.616" r="19.144"></circle>
    <g>
      <circle style="fill: #5e5456" cx="52.485" cy="397.96" r="21.569"></circle>
      <circle
        style="fill: #5e5456"
        cx="382.192"
        cy="397.96"
        r="21.569"
      ></circle>
    </g>
    <g>
      <circle style="fill: #ff5948" cx="52.485" cy="397.96" r="8.089"></circle>
      <circle style="fill: #ff5948" cx="382.192" cy="397.96" r="8.089"></circle>
    </g>
    <path
      style="fill: #5e5456"
      d="M326.684,372.291h-76.212c-4.467,0-8.089-3.621-8.089-8.087c0-4.466,3.622-8.087,8.089-8.087h76.211 c4.467,0,8.089,3.621,8.089,8.087C334.773,368.67,331.151,372.291,326.684,372.291z"
    ></path>
  </g>
</svg>
