<svg
  version="1.1"
  id="Layer_1"
  xmlns="http://www.w3.org/2000/svg"
  xmlns:xlink="http://www.w3.org/1999/xlink"
  viewBox="0 0 511.997 511.997"
  xml:space="preserve"
  fill="#000000"
>
  <g id="SVGRepo_bgCarrier" stroke-width="0"></g>
  <g
    id="SVGRepo_tracerCarrier"
    stroke-linecap="round"
    stroke-linejoin="round"
  ></g>
  <g id="SVGRepo_iconCarrier">
    <rect
      x="343.861"
      y="367.51"
      style="fill: #d4e4ac"
      width="159.766"
      height="79.878"
    ></rect>
    <polygon
      style="fill: #7ddff2"
      points="343.696,366.536 495.436,366.536 495.436,343.513 319.627,343.513 319.627,438.743 343.696,438.743 "
    ></polygon>
    <g>
      <polygon
        style="fill: #d4e4ac"
        points="319.627,343.513 471.367,343.513 471.367,319.444 296.604,319.444 296.604,414.674 319.627,414.674 "
      ></polygon>
      <rect
        x="8.361"
        y="367.51"
        style="fill: #d4e4ac"
        width="159.766"
        height="79.878"
      ></rect>
    </g>
    <polygon
      style="fill: #7ddff2"
      points="168.934,366.536 17.194,366.536 17.194,343.513 191.956,343.513 191.956,438.743 168.934,438.743 "
    ></polygon>
    <polygon
      style="fill: #d4e4ac"
      points="191.956,343.513 41.263,343.513 41.263,319.444 216.025,319.444 216.025,414.674 191.956,414.674 "
    ></polygon>
    <g>
      <circle
        style="fill: #ffffff"
        cx="88.248"
        cy="407.444"
        r="39.944"
      ></circle>
      <circle
        style="fill: #ffffff"
        cx="423.75"
        cy="407.444"
        r="39.944"
      ></circle>
    </g>
    <polygon
      style="fill: #e2804f"
      points="503.807,223.717 256.315,95.905 8.822,223.717 8.822,248.283 503.807,248.283 "
    ></polygon>
    <polygon
      style="fill: #ffffff"
      points="255.996,102.298 160.137,222.121 351.854,222.121 "
    ></polygon>
    <g>
      <rect
        x="8.361"
        y="223.713"
        style="fill: #7ddff2"
        width="151.771"
        height="23.964"
      ></rect>
      <rect
        x="351.856"
        y="223.713"
        style="fill: #7ddff2"
        width="151.771"
        height="23.964"
      ></rect>
    </g>
    <rect
      x="160.141"
      y="223.713"
      style="fill: #e2804f"
      width="191.715"
      height="23.964"
    ></rect>
    <rect x="0.45" y="263.982" width="15.697" height="24.069"></rect>
    <rect x="151.141" y="263.982" width="15.697" height="24.069"></rect>
    <rect x="342.647" y="263.982" width="15.697" height="24.069"></rect>
    <rect x="494.387" y="263.982" width="15.697" height="24.069"></rect>
    <polygon
      points="242.187,280.724 250.559,280.724 250.559,470.137 266.256,470.137 266.256,280.724 274.628,280.724 274.628,265.027 242.187,265.027 "
    ></polygon>
    <path
      d="M255.797,87.335L0.45,218.932v37.722h510.574l0.522-37.158L255.797,87.335z M151.144,231.54v9.418H16.148v-9.418h39.766 v-15.697H40.712l186.726-96.232l-72.344,96.232H72.658v15.697H151.144z M342.65,240.958H166.841v-9.418h33.487v-15.697h-25.597 l80.014-106.434l80.014,106.434h-23.504v15.697h31.394V240.958z M495.546,240.958H358.347v-9.418h74.3v-15.697h-78.25 l-73.619-97.928l189.503,97.928h-22.985v15.697h48.38L495.546,240.958z"
    ></path>
    <rect x="23.473" y="0.268" width="15.697" height="87.904"></rect>
    <rect x="46.493" y="95.498" width="15.697" height="40.813"></rect>
    <rect x="63.237" y="143.636" width="15.697" height="24.069"></rect>
    <rect x="7.776" y="103.87" width="15.697" height="79.533"></rect>
    <rect x="79.981" y="31.663" width="15.697" height="63.835"></rect>
    <rect x="128.119" y="0.268" width="15.697" height="63.835"></rect>
    <rect x="160.56" y="56.779" width="15.697" height="47.092"></rect>
    <rect x="111.375" y="95.498" width="15.697" height="24.069"></rect>
    <rect
      x="179.915"
      y="20.163"
      transform="matrix(-0.0064 -1 1 -0.0064 181.1967 236.0651)"
      width="55.925"
      height="15.698"
    ></rect>
    <rect x="399.157" y="40.035" width="15.697" height="86.858"></rect>
    <rect x="423.226" y="0.268" width="15.697" height="39.766"></rect>
    <rect x="231.72" y="40.035" width="15.697" height="16.744"></rect>
    <rect x="295.556" y="23.29" width="15.697" height="55.463"></rect>
    <rect x="318.578" y="78.755" width="15.697" height="32.441"></rect>
    <rect x="342.647" y="0.268" width="15.697" height="48.138"></rect>
    <rect x="366.716" y="103.87" width="15.697" height="15.697"></rect>
    <rect x="206.605" y="78.755" width="15.697" height="16.744"></rect>
    <rect x="487.062" y="48.407" width="15.697" height="150.693"></rect>
    <rect x="430.552" y="143.636" width="15.697" height="32.441"></rect>
    <rect x="437.877" y="95.498" width="15.697" height="24.069"></rect>
    <path
      d="M0.512,359.656v95.579h175.462v-95.579H0.512z M120.336,407.446c0,17.696-14.397,32.092-32.093,32.092 S56.15,425.142,56.15,407.446s14.396-32.092,32.092-32.092S120.336,389.75,120.336,407.446z M16.209,375.353h36.653 c-7.707,8.488-12.409,19.751-12.409,32.092c0,12.341,4.703,23.604,12.409,32.092H16.209V375.353z M160.277,439.539h-36.653 c7.707-8.488,12.409-19.752,12.409-32.092s-4.703-23.604-12.409-32.092h36.653V439.539z"
    ></path>
    <rect x="79.981" y="400.024" width="16.744" height="15.697"></rect>
    <polygon
      points="199.282,438.743 183.584,438.743 183.584,352.932 17.194,352.932 17.194,337.234 199.282,337.234 "
    ></polygon>
    <polygon
      points="222.304,414.674 206.607,414.674 206.607,327.816 41.263,327.816 41.263,312.119 222.304,312.119 "
    ></polygon>
    <path
      d="M511.478,455.237H336.017v-95.579h175.461V455.237z M351.714,439.539h144.067v-64.185H351.714V439.539z"
    ></path>
    <path
      d="M336.017,359.656v95.579h175.461v-95.579H336.017z M455.84,407.446c0,17.696-14.396,32.092-32.092,32.092 s-32.092-14.396-32.092-32.092s14.396-32.092,32.092-32.092S455.84,389.75,455.84,407.446z M351.714,375.353h36.653 c-7.707,8.488-12.409,19.751-12.409,32.092c0,12.341,4.703,23.604,12.409,32.092h-36.653V375.353z M495.781,439.539h-36.653 c7.707-8.488,12.409-19.752,12.409-32.092s-4.703-23.604-12.409-32.092h36.653V439.539z"
    ></path>
    <rect x="415.901" y="400.024" width="16.744" height="15.697"></rect>
    <polygon
      points="325.906,438.743 310.209,438.743 310.209,337.234 495.436,337.234 495.436,352.932 325.906,352.932 "
    ></polygon>
    <polygon
      points="303.93,414.674 288.233,414.674 288.233,312.119 471.367,312.119 471.367,327.816 303.93,327.816 "
    ></polygon>
    <polygon
      style="fill: #e2804f"
      points="266.256,496.299 266.256,479.556 250.559,479.556 250.559,496.299 234.862,496.299 234.862,511.997 283,511.997 283,496.299 "
    ></polygon>
  </g>
</svg>
