<svg
  viewBox="0 0 1024 1024"
  fill="#37a09e"
  class="icon"
  version="1.1"
  xmlns="http://www.w3.org/2000/svg"
  stroke="#37a09e"
>
  <g id="SVGRepo_bgCarrier" stroke-width="0"></g>
  <g
    id="SVGRepo_tracerCarrier"
    stroke-linecap="round"
    stroke-linejoin="round"
  ></g>
  <g id="SVGRepo_iconCarrier">
    <path
      d="M679.296811 398.138063V127.312332L631.841714 0H267.891731L222.732848 127.567467v345.069997h76.54048v115.065854h0.255135v147.340424c41.204292-31.254029 94.910195-38.397807 141.855023-21.558902h72.841023v46.434558l3.571889 2.678917 36.356728-27.554573c13.394584-10.07783 28.064843-17.731878 43.372939-22.834576v-124.505848h78.198857v120.168554c21.431334 4.464861 42.097264 13.394584 60.339412 27.17187l22.962144 17.349176V587.703318h80.367504v129.480979c26.278898-11.481072 55.236713-15.052961 83.301555-10.843235v-118.637744h97.971815V398.138063H679.296811zM321.980337 76.54048h256.79331l19.517823 52.302661H303.355487L321.980337 76.54048z m-22.834576 319.684071V203.980379h303.61057v192.244172h-97.333977v-104.73289h-113.79018v104.73289h-92.486413z m214.951181 284.347883h-131.394491v-30.871327h131.394491v30.871327z m0-63.783733h-131.394491v-29.085383h131.394491v29.085383z m429.774795-105.625862H375.813808V474.550976h568.057929v36.611863zM1005.231688 940.299796l-37.887537-28.70268c-39.928617-30.361057-95.6756-30.23349-135.604217 0l-37.887538 28.70268c-12.756747 9.56756-30.488625 9.56756-43.117804 0l-37.887537-28.70268c-39.928617-30.361057-95.6756-30.23349-135.604217 0l-37.887538 28.70268c-12.756747 9.56756-30.488625 9.56756-43.117803 0l-37.887538-28.70268c-39.928617-30.361057-95.6756-30.23349-135.604217 0l-37.887538 28.70268c-12.756747 9.56756-30.488625 9.56756-43.117803 0l-37.887538-28.70268a112.705857 112.705857 0 0 0-135.604217 0l-49.751312 37.504835a38.244726 38.244726 0 1 0 46.179423 60.977249l49.496177-37.504835c12.756747-9.56756 30.488625-9.56756 43.117804 0l37.887537 28.70268c39.928617 30.361057 95.6756 30.23349 135.604217 0l37.887538-28.70268c12.629179-9.56756 30.488625-9.695127 43.117804 0L449.802939 1001.277045c39.928617 30.361057 95.6756 30.23349 135.604217 0l37.887537-28.70268c12.756747-9.56756 30.488625-9.695127 43.117804 0l37.887538 28.70268a112.004236 112.004236 0 0 0 67.865892 22.707009c23.982684 0 47.8378-7.526481 67.865892-22.707009l37.887538-28.70268c12.756747-9.56756 30.488625-9.56756 43.117803 0l37.887538 28.70268c16.838906 12.756747 40.821589 9.439993 53.578336-7.398913 12.884314-16.838906 9.56756-40.821589-7.271346-53.578336zM1005.231688 794.362614l-37.887537-28.70268c-39.928617-30.361057-95.6756-30.23349-135.604217 0l-37.887538 28.70268c-12.756747 9.56756-30.488625 9.56756-43.117804 0l-37.887537-28.70268c-39.928617-30.361057-95.6756-30.23349-135.604217 0l-37.887538 28.70268c-12.756747 9.56756-30.488625 9.56756-43.117803 0l-37.887538-28.70268c-39.928617-30.361057-95.6756-30.23349-135.604217 0l-37.887538 28.70268c-12.756747 9.56756-30.488625 9.56756-43.117803 0l-37.887538-28.70268a110.02694 110.02694 0 0 0-48.603205-20.921064V151.167448a31.891867 31.891867 0 0 0-63.783733 0v79.474532H76.412964a31.891867 31.891867 0 0 0 0 63.783733H91.338358v78.198857H76.412964a31.891867 31.891867 0 0 0 0 63.783733H91.338358v78.198857H76.412964a31.891867 31.891867 0 0 0 0 63.783733H91.338358v78.198857H76.412964a31.891867 31.891867 0 0 0 0 63.783734H91.338358v32.147001c-8.164318 3.444322-16.073501 7.654048-23.344847 13.139449l-49.496177 37.504835a38.244726 38.244726 0 1 0 46.179423 60.977249l49.496177-37.504835c12.756747-9.56756 30.488625-9.56756 43.117804 0l37.887537 28.70268c39.928617 30.361057 95.6756 30.23349 135.604217 0l37.887538-28.70268c12.629179-9.56756 30.488625-9.695127 43.117804 0L449.802939 855.339863c39.928617 30.361057 95.6756 30.23349 135.604217 0l37.887537-28.70268c12.756747-9.56756 30.488625-9.695127 43.117804 0l37.887538 28.70268a112.004236 112.004236 0 0 0 67.865892 22.707009c23.982684 0 47.8378-7.526481 67.865892-22.707009l37.887538-28.70268c12.756747-9.56756 30.488625-9.56756 43.117803 0l37.887538 28.70268c16.838906 12.756747 40.821589 9.439993 53.578336-7.398913 12.884314-16.838906 9.56756-40.821589-7.271346-53.578336z"
    ></path>
  </g>
</svg>
