<svg
  fill="#167188"
  height="200px"
  width="200px"
  version="1.1"
  id="Layer_1"
  xmlns="http://www.w3.org/2000/svg"
  xmlns:xlink="http://www.w3.org/1999/xlink"
  viewBox="0 0 512.853 512.853"
  xml:space="preserve"
  stroke="#167188"
>
  <g id="SVGRepo_bgCarrier" stroke-width="0"></g>
  <g
    id="SVGRepo_tracerCarrier"
    stroke-linecap="round"
    stroke-linejoin="round"
  ></g>
  <g id="SVGRepo_iconCarrier">
    <g>
      <g>
        <path
          d="M503.467,0.427c-5.12,0-8.533,3.413-8.533,8.533v17.067H298.667V8.96c0-5.12-3.413-8.533-8.533-8.533h-68.267 c-5.12,0-8.533,3.413-8.533,8.533v17.067H17.067V8.96c0-5.12-3.413-8.533-8.533-8.533S0,3.84,0,8.96v25.6v34.133v34.133 c0,4.267,2.56,6.827,6.827,8.533l211.627,51.2L58.027,196.693c-4.267,0.853-6.827,4.267-6.827,8.533s2.56,7.68,6.827,8.533 l157.867,34.133L58.027,282.027c-4.267,0.853-6.827,5.12-6.827,8.533c0,4.267,3.413,7.68,7.68,7.68l148.48,19.627l-182.613,40.96 H0v81.92c0,11.093,9.387,20.48,20.48,20.48h5.973c4.267,29.013,29.013,51.2,58.88,51.2c29.867,0,54.613-22.187,58.88-51.2h223.573 c4.267,29.013,29.013,51.2,58.88,51.2c29.867,0,54.613-22.187,58.88-51.2h5.973c11.093,0,20.48-9.387,20.48-20.48v-81.92h-24.747 l-181.76-40.107l147.627-19.627c4.267-0.853,6.827-4.267,7.68-7.68c0-4.267-2.56-7.68-6.827-8.533l-157.867-34.133l157.867-34.133 c4.267-0.853,6.827-4.267,6.827-8.533s-2.56-7.68-6.827-8.533L294.4,162.56l211.627-51.2c3.413-0.853,6.827-4.267,6.827-8.533 V68.693V34.56V8.96C512,3.84,508.587,0.427,503.467,0.427z M17.067,43.093h196.267V60.16H17.067V43.093z M85.333,469.76 c-9.387,0-17.067-7.68-17.067-17.067c0-9.387,7.68-17.067,17.067-17.067c9.387,0,17.067,7.68,17.067,17.067 C102.4,462.08,94.72,469.76,85.333,469.76z M426.667,469.76c-9.387,0-17.067-7.68-17.067-17.067 c0-9.387,7.68-17.067,17.067-17.067s17.067,7.68,17.067,17.067C443.733,462.08,436.053,469.76,426.667,469.76z M494.933,375.893 v64.853c0,1.707-1.707,3.413-3.413,3.413h-5.973c0-0.853,0-1.707,0-1.707c0-0.853,0-1.707-0.853-2.56 c0-0.853-0.853-2.56-0.853-3.413s0-1.707-0.853-2.56c0-0.853-0.853-2.56-0.853-3.413s-0.853-1.707-0.853-1.707 c-0.853-0.853-0.853-2.56-1.707-3.413c0-0.853-0.853-0.853-0.853-1.707c-0.853-1.707-1.707-3.413-2.56-5.12l-0.853-0.853 c-0.853-0.853-1.707-2.56-2.56-3.413c0-0.853-0.853-0.853-1.707-1.707s-1.707-1.707-2.56-2.56s-0.853-0.853-1.707-1.707 s-1.707-1.707-2.56-2.56s-0.853-0.853-1.707-1.707s-1.707-1.707-2.56-1.707c-0.853-0.853-1.707-0.853-1.707-1.707 c-0.853-0.853-1.707-0.853-2.56-1.707c-0.853,0-1.707-0.853-1.707-0.853c-0.853-0.853-1.707-0.853-2.56-1.707 c-0.853,0-1.707-0.853-2.56-0.853s-1.707-0.853-3.413-0.853c-0.853,0-1.707-0.853-2.56-0.853c-0.853,0-2.56-0.853-3.413-0.853 c-0.853,0-1.707,0-2.56-0.853c-0.853,0-2.56,0-3.413-0.853c-0.853,0-0.853,0-1.707,0c-1.707,0-4.267,0-5.973,0s-4.267,0-5.973,0 c-0.853,0-0.853,0-1.707,0c-0.853,0-2.56,0-3.413,0.853c-0.853,0-1.707,0-2.56,0.853c-0.853,0-2.56,0.853-3.413,0.853 s-1.707,0.853-2.56,0.853s-1.707,0.853-3.413,0.853c-0.853,0-1.707,0.853-2.56,0.853c-0.853,0.853-1.707,0.853-2.56,1.707 c-0.853,0-1.707,0.853-1.707,0.853c-0.853,0.853-1.707,0.853-2.56,1.707c-0.853,0-1.707,0.853-1.707,1.707 c-0.853,0.853-1.707,0.853-2.56,1.707s-0.853,0.853-1.707,1.707s-1.707,1.707-2.56,2.56c0,1.707,0,1.707-0.853,2.56 c-0.853,0.853-1.707,1.707-2.56,2.56c-0.853,0.853-0.853,0.853-1.707,1.707c-0.853,0.853-1.707,2.56-2.56,3.413l-0.853,0.853 c-0.853,1.707-1.707,3.413-2.56,5.12c0,0.853-0.853,0.853-0.853,1.707c-0.853,0.853-0.853,2.56-1.707,3.413 c0,0.853-0.853,1.707-0.853,1.707c0,0.853-0.853,2.56-0.853,3.413s-0.853,1.707-0.853,2.56c0,0.853-0.853,1.707-0.853,3.413 c0,0.853,0,1.707-0.853,2.56c0,0.853,0,0.853,0,1.707h-222.72c0-0.853,0-1.707,0-1.707c0-0.853,0-1.707-0.853-2.56 c0-0.853-0.853-2.56-0.853-3.413c0-0.853,0-1.707-0.853-2.56c0-0.853-0.853-2.56-0.853-3.413s-0.853-1.707-0.853-1.707 c-0.853-0.853-0.853-2.56-1.707-3.413c0-0.853-0.853-0.853-0.853-1.707c-0.853-1.707-1.707-3.413-2.56-5.12l-0.853-0.853 c-0.853-0.853-1.707-2.56-2.56-3.413c0-0.853-0.853-0.853-1.707-1.707c-0.853-0.853-1.707-1.707-2.56-2.56 c-0.853-0.853-0.853-0.853-1.707-1.707c-0.853-0.853-1.707-1.707-2.56-2.56c-0.853-0.853-0.853-0.853-1.707-1.707 c-0.853-0.853-1.707-1.707-2.56-1.707c-0.853-0.853-1.707-0.853-1.707-1.707c-0.853-0.853-1.707-0.853-2.56-1.707 c-0.853,0-1.707-0.853-1.707-0.853c-0.853-0.853-1.707-0.853-2.56-1.707c-0.853,0-1.707-0.853-2.56-0.853 s-1.707-0.853-3.413-0.853c-0.853,0-1.707-0.853-2.56-0.853s-2.56-0.853-3.413-0.853s-1.707,0-2.56-0.853 c-0.853,0-2.56,0-3.413-0.853c-0.853,0-0.853,0-1.707,0c-1.707,0-4.267,0-5.973,0s-4.267,0-5.973,0c-0.853,0-0.853,0-1.707,0 s-2.56,0-3.413,0.853c-0.853,0-1.707,0-2.56,0.853c-0.853,0-2.56,0.853-3.413,0.853s-1.707,0.853-2.56,0.853 s-1.707,0.853-3.413,0.853c-0.853,0-1.707,0.853-2.56,0.853c-0.853,0.853-1.707,0.853-2.56,1.707 c-0.853,0-1.707,0.853-1.707,0.853c0,1.707-0.853,1.707-1.707,2.56c-0.853,0-1.707,0.853-1.707,1.707 c-0.853,0.853-1.707,0.853-2.56,1.707c-0.853,0.853-0.853,0.853-1.707,1.707c-0.853,0.853-1.707,1.707-2.56,2.56 c-0.853,0-0.853,0-1.707,0.853c-0.853,0.853-1.707,1.707-2.56,2.56c-0.853,0.853-0.853,0.853-1.707,1.707 c-0.853,0.853-1.707,2.56-2.56,3.413l-0.853,0.853c-0.853,1.707-1.707,3.413-2.56,5.12c0,0.853-0.853,0.853-0.853,1.707 c-0.853,0.853-0.853,2.56-1.707,3.413c0,0.853-0.853,1.707-0.853,1.707c0,0.853-0.853,2.56-0.853,3.413s-0.853,1.707-0.853,2.56 c0,0.853-0.853,1.707-0.853,3.413c0,0.853,0,1.707-0.853,2.56c0,0.853,0,0.853,0,1.707h-5.12c-1.707-0.853-3.413-2.56-3.413-4.267 v-64.853H494.933z M408.747,358.827H103.253L256,324.693L408.747,358.827z M402.773,288.853L256,307.627l-145.92-18.773 L256,256.427L402.773,288.853z M412.16,205.227L256,239.36L99.84,205.227L256,171.093L412.16,205.227z M256,154.027L80.213,111.36 h351.573L256,154.027z M494.933,94.293H17.067V77.227h204.8h68.267h204.8V94.293z M494.933,60.16H298.667V43.093h196.267V60.16z"
        ></path>
      </g>
    </g>
  </g>
</svg>
