<svg viewBox="0 0 512 512" xmlns="http://www.w3.org/2000/svg" fill="#3168af">
  <g id="SVGRepo_bgCarrier" stroke-width="0"></g>
  <g
    id="SVGRepo_tracerCarrier"
    stroke-linecap="round"
    stroke-linejoin="round"
  ></g>
  <g id="SVGRepo_iconCarrier">
    <path
      fill="#aab1b5"
      d="M121 17v30h270V17H121zm16 48v46h30V65h-30zm208 0v46h30V65h-30zm-224 64v30h270v-30H121zm16 48v46h30v-46h-30zm208 0v46h30v-46h-30zm-224 64v30h270v-30H121zm16 48v46h30v-46h-30zm208 0v46h30v-46h-30zm-224 64v30h270v-30H121zm16 48v46h30v-46h-30zm208 0v46h30v-46h-30zm-224 64v30h270v-30H121z"
    ></path>
  </g>
</svg>
