<svg
  fill="#a53403"
  height="200px"
  width="200px"
  version="1.1"
  id="Capa_1"
  xmlns="http://www.w3.org/2000/svg"
  xmlns:xlink="http://www.w3.org/1999/xlink"
  viewBox="0 0 488.724 488.724"
  xml:space="preserve"
  stroke="#a53403"
>
  <g id="SVGRepo_bgCarrier" stroke-width="0"></g>
  <g
    id="SVGRepo_tracerCarrier"
    stroke-linecap="round"
    stroke-linejoin="round"
  ></g>
  <g id="SVGRepo_iconCarrier">
    <g>
      <path
        d="M139.744,170.696v69.134c13.633,11.722,24.289,27.046,29.977,45.218c1.289,4.127,1.926,8.403,2.643,12.655V171.309 c-3.68,0.536-7.342,1.037-11.07,1.139l-2.77,0.04C152.09,172.488,145.812,171.852,139.744,170.696z"
      ></path>
      <path
        d="M316.236,165.241c2.074-11.612,6.055-22.48,11.756-32.244c-1.129-0.135-2.248-0.374-3.41-0.374h-68.854l0.811,4.443 c1.93,10.258-1.303,20.531-8.471,28.175H316.236z"
      ></path>
      <path
        d="M324.838,275.74c-0.824-0.789-1.418-1.754-2.166-2.612v146.278H172.363v-27.46c-4.283,2.128-8.98,3.473-13.949,3.546 l-18.67,0.262v59.329c0,18.548,13.777,33.641,30.709,33.641h154.129c16.932,0,30.709-15.093,30.709-33.641V283.4 c-2.691,0.709-5.445,1.076-8.248,1.076C338.838,284.477,330.988,281.41,324.838,275.74z M247.527,472.414 c-11.277,0-20.387-9.128-20.387-20.389c0-11.26,9.109-20.387,20.387-20.387c11.244,0,20.387,9.127,20.387,20.387 C267.914,463.286,258.771,472.414,247.527,472.414z"
      ></path>
      <path
        d="M164.863,367.155c1.434-2.374,1.578-5.318,0.348-7.806l-16.629-33.749c1.688-10.822,1.26-22.108-2.229-33.267 c-9.875-31.669-39.1-51.972-70.625-51.972c-7.293,0-14.732,1.086-22.074,3.377c-39.008,12.186-60.748,53.685-48.578,92.699 c9.875,31.672,39.104,51.964,70.625,51.964c7.293,0,14.717-1.082,22.074-3.376c9.363-2.924,17.666-7.622,24.814-13.491 l35.471-0.508C160.83,370.986,163.396,369.529,164.863,367.155z M76.447,371.702c-8.012,0-14.51-6.498-14.51-14.509 c0-8.013,6.498-14.51,14.51-14.51c8.014,0,14.512,6.497,14.512,14.51C90.959,365.204,84.461,371.702,76.447,371.702z M96.23,282.532l-7.279,42.239c-0.381,2.199-2.295,3.799-4.523,3.799H68.469c-2.229,0-4.125-1.6-4.51-3.799l-7.295-42.239 c-0.955-5.591,0.588-11.331,4.256-15.664c3.646-4.349,9.029-6.857,14.717-6.857h1.641c5.684,0,11.066,2.508,14.699,6.857 C95.642,271.201,97.201,276.941,96.23,282.532z"
      ></path>
      <path
        d="M158.523,148.023c0.699,0,1.4-0.017,2.104-0.031c9.809-0.28,19.08-2.55,27.555-6.259l34.275,9.134 c0.666,0.183,1.371,0.27,2.07,0.27c2.006,0,3.979-0.758,5.508-2.159c2.041-1.896,2.967-4.689,2.455-7.415l-6.834-36.991 c4.539-9.964,7.201-20.946,6.863-32.628C231.406,31.793,198.502,0,158.588,0c-0.701,0-1.404,0.017-2.104,0.032 c-40.855,1.155-73.047,35.201-71.898,76.056C85.701,116.233,118.609,148.023,158.523,148.023z M158.621,131.666 c-8.414,0-15.23-6.824-15.23-15.242c0-8.418,6.816-15.244,15.23-15.244c8.422,0,15.258,6.826,15.258,15.244 C173.879,124.841,167.043,131.666,158.621,131.666z M143.088,26.607c3.646-4.349,9.029-6.857,14.703-6.857h1.654 c5.674,0,11.057,2.508,14.719,6.857c3.66,4.332,5.189,10.075,4.234,15.666l-7.293,42.239c-0.381,2.197-2.277,3.799-4.506,3.799 h-15.943c-2.234,0-4.145-1.602-4.525-3.799l-7.293-42.239C137.883,36.682,139.426,30.94,143.088,26.607z"
      ></path>
      <path
        d="M415.099,108.905c-0.699-0.017-1.402-0.031-2.102-0.031c-39.93,0-72.82,31.79-73.953,71.945 c-0.318,11.682,2.324,22.663,6.883,32.628l-6.85,36.991c-0.512,2.723,0.43,5.519,2.451,7.414c1.529,1.402,3.506,2.159,5.514,2.159 c0.699,0,1.398-0.089,2.084-0.271l34.279-9.137c8.471,3.712,17.725,5.982,27.555,6.262c0.699,0.014,1.4,0.031,2.1,0.031 c39.918,0,72.809-31.793,73.938-71.939C488.127,144.107,455.955,110.061,415.099,108.905z M412.949,240.539 c-8.408,0-15.24-6.824-15.24-15.241c0-8.418,6.832-15.244,15.24-15.244c8.414,0,15.229,6.826,15.229,15.244 C428.178,233.715,421.363,240.539,412.949,240.539z M432.732,151.145l-7.295,42.241c-0.381,2.198-2.275,3.8-4.51,3.8h-15.943 c-2.228,0-4.139-1.602-4.519-3.8l-7.295-42.241c-0.959-5.588,0.59-11.332,4.25-15.664c3.646-4.348,9.031-6.857,14.703-6.857h1.656 c5.668,0,11.051,2.509,14.717,6.857C432.158,139.813,433.687,145.556,432.732,151.145z"
      ></path>
      <path
        d="M247.527,348.575c8.789,0,15.924-7.127,15.924-15.927c0-8.791-7.135-15.918-15.924-15.918 c-8.795,0-15.93,7.127-15.93,15.918C231.597,341.448,238.732,348.575,247.527,348.575z"
      ></path>
      <path
        d="M188.959,332.649c0,8.8,7.121,15.927,15.93,15.927c8.793,0,15.908-7.127,15.908-15.927c0-8.791-7.115-15.918-15.908-15.918 C196.08,316.731,188.959,323.857,188.959,332.649z"
      ></path>
      <path
        d="M274.238,332.649c0,8.8,7.121,15.927,15.924,15.927c8.795,0,15.914-7.127,15.914-15.927 c0-8.791-7.119-15.918-15.914-15.918C281.359,316.731,274.238,323.857,274.238,332.649z"
      ></path>
    </g>
  </g>
</svg>
