<svg
  fill="#45d1d3"
  height="200px"
  width="200px"
  version="1.1"
  id="Layer_1"
  xmlns="http://www.w3.org/2000/svg"
  xmlns:xlink="http://www.w3.org/1999/xlink"
  viewBox="0 0 512 512"
  xml:space="preserve"
  stroke="#45d1d3"
>
  <g id="SVGRepo_bgCarrier" stroke-width="0"></g>
  <g
    id="SVGRepo_tracerCarrier"
    stroke-linecap="round"
    stroke-linejoin="round"
  ></g>
  <g id="SVGRepo_iconCarrier">
    <g>
      <g>
        <path
          d="M268.451,5.318c-6.33-7.09-18.575-7.09-24.903,0c-46.282,51.799-71.068,69.789-71.068,111.354 c-0.001,46.098,37.262,83.499,83.639,83.499c41.037,0,73.43-29.233,81.29-64.516C349.725,80.294,307.699,49.245,268.451,5.318z"
        ></path>
      </g>
    </g>
    <g>
      <g>
        <path
          d="M471.357,77.745c-18.066,0.945-31.612,17.126-31.612,35.216v124.106c0,23.87-5.281,36.577-14.682,45.977l-57.028,57.023 c-15.604,15.604-39.26-7.996-23.621-23.621l54.881-57.828c13.213-13.921,12.927-35.836-0.645-49.407 c-14.093-14.093-37.034-13.781-50.739,0.686l-50.747,53.573c-15.662,15.662-24.46,36.905-24.46,59.054c0,34.938,0,56.796,0,92.33 c-6.241,2.225-11.879,5.604-16.704,9.956c-4.825-4.352-10.463-7.731-16.704-9.956c0-35.595,0-57.228,0-92.33 c0-22.149-8.8-43.392-24.46-59.054l-50.747-53.573c-13.705-14.468-36.646-14.779-50.739-0.686 c-13.571,13.571-13.858,35.486-0.645,49.407l54.881,57.828c15.639,15.625-8.017,39.224-23.621,23.621l-57.031-57.024 c-9.4-9.4-14.682-22.107-14.682-45.977V112.96c0-18.09-13.546-34.271-31.612-35.216C21.377,76.735,5.44,92.058,5.44,111.105 V281.01c0,13.294,5.282,26.044,14.683,35.444l47.24,47.233c3.134,3.133,4.894,7.382,4.894,11.814c0,13.757,0,25.543,0,39.353 c-19.401,6.918-33.408,25.285-33.408,47.034C38.849,489.521,61.328,512,88.96,512h133.632c12.881,0,24.521-5.02,33.408-13.034 C264.887,506.98,276.527,512,289.408,512H423.04c27.633,0,50.112-22.479,50.112-50.112c0-21.747-14.007-40.116-33.408-47.034 c0-13.786,0-25.546,0-39.353c0-4.431,1.761-8.681,4.894-11.814l47.24-47.233c9.401-9.4,14.683-22.149,14.683-35.444V111.105 C506.561,92.059,490.623,76.735,471.357,77.745z M222.591,478.592H88.959c-9.211,0-16.704-7.493-16.704-16.704 c0-9.211,7.493-16.704,16.704-16.704h133.632c9.211,0,16.704,7.493,16.704,16.704 C239.295,471.099,231.803,478.592,222.591,478.592z M423.039,478.592H289.407c-9.211,0-16.704-7.493-16.704-16.704 c0-9.211,7.493-16.704,16.704-16.704h133.632c9.211,0,16.704,7.493,16.704,16.704 C439.743,471.099,432.249,478.592,423.039,478.592z"
        ></path>
      </g>
    </g>
  </g>
</svg>
